<svg xmlns="http://www.w3.org/2000/svg" viewBox="0 0 40 40" id="lego">
  <path d="M31.21 13.43a4.74 4.74 0 0 0-3.85 1.69 2.15 2.15 0 0 0-.41-.6 4.14 4.14 0 0 0-3.25-1.13 5.36 5.36 0 0 0-3.47 1.15 3.14 3.14 0 0 0-2.71-1.16c-1.62 0-3.39.23-4.45 1.92a1.74 1.74 0 0 0-.41-1.3 2.4 2.4 0 0 0-1.75-.55A3.06 3.06 0 0 0 8.16 15C7.23 16.53 5 21.48 5 23.87a2.68 2.68 0 0 0 2.92 2.69 4.36 4.36 0 0 0 3.31-1.08 3.77 3.77 0 0 0 2.83 1.13 4.68 4.68 0 0 0 3.43-1.27 3.73 3.73 0 0 0 3 1.28 5.46 5.46 0 0 0 4.27-2.11 3.4 3.4 0 0 0 3.46 2.1c3.35 0 4.81-2.3 6-5.93a13.63 13.63 0 0 0 .7-3.33c.17-1.91-.63-3.92-3.71-3.92Zm-20.1 10C11 25.18 9.36 25.57 8 25.54c-1 0-1.9-.49-1.92-1.65 0-2 2-6.72 3-8.29a2 2 0 0 1 1.87-1.1c.83 0 1 .42 1 .94 0 1.36-2.23 5.5-2.95 7.11 1.73-.3 2.16.32 2.11.89ZM14.63 21a14.71 14.71 0 0 0-.51 1.64 5.87 5.87 0 0 1 1.71-.22c.83 0 1.37.36 1.37 1.05 0 1.67-1.84 2.15-3.11 2.15a2.37 2.37 0 0 1-2.64-2.32 17 17 0 0 1 1.89-6.34c1.12-2.22 2.26-2.52 4.24-2.52.86 0 1.86.37 1.86 1.2 0 1.13-1 1.56-1.9 1.62a11.26 11.26 0 0 1-1.42 0 8.84 8.84 0 0 0-.65 1.35c1.77-.24 2.51.15 2.21 1.17-.4 1.34-1.59 1.43-3.05 1.22Zm8.68-4.29a1.24 1.24 0 0 0-1 .63 18.08 18.08 0 0 0-1.79 4.77c-.11.82.23 1 .61 1 .62 0 1.3-.64 1.54-1.71 0 0-1.17 0-.85-1.07S22.7 19 23.69 19c1.93-.08 1.73 1.36 1.58 2.12-.5 2.48-2.26 4.47-4.76 4.47a2.49 2.49 0 0 1-2.77-2.69 13.37 13.37 0 0 1 1.11-4.32c1-2.43 2.12-4.13 4.91-4.13 1.65 0 3 .6 2.78 2.16a1.87 1.87 0 0 1-1.76 1.9c-.29 0-1.48 0-1.08-1.14.14-.37.19-.71-.39-.71Zm10.47 2.05a16.48 16.48 0 0 1-1.66 4.47 4 4 0 0 1-3.83 2.38c-1.24 0-2.64-.47-2.65-2.38a14.58 14.58 0 0 1 1.08-4.58c.89-2.3 1.77-4.18 4.61-4.15 3.3 0 2.67 2.93 2.45 4.21Zm-2.79-2a.78.78 0 0 0-.76.4 20.83 20.83 0 0 0-1.93 5.43.49.49 0 0 0 .52.52 1 1 0 0 0 .82-.6 23.64 23.64 0 0 0 1.79-5.19c.01-.32-.03-.6-.43-.61Z"></path>
</svg>
